<svg xmlns="http://www.w3.org/2000/svg" width="20px" height="20px" viewBox="0 0 21 21.918152">
  <g clip-path="url(#a)" transform="matrix(.2599 0 0 -.2599 0 21.918)">
    <path d="M40.4 84.333C18.144 84.333 0 70 0 52.233c0-17.766 18.144-32.098 40.4-32.098 3.024 0 6.048.237 8.95.83V5.567C49.35 2.487 51.89 0 55.037 0c2.177 0 4.112 1.184 5.08 3.198l17.176 35.89c1.815 3.907 3.508 8.17 3.508 13.146 0 9.12-4.354 17.412-12.338 23.334-7.378 5.685-17.418 8.765-28.062 8.765m0-4.738c19.595 0 35.562-11.49 35.562-27.36 0-4.028-1.33-7.463-3.145-11.135L55.64 5.21c-.12-.354-.483-.472-.725-.472-.363 0-.847.236-.847.83v21.437c-4.233-1.303-8.83-2.132-13.79-2.132-19.594 0-35.56 12.2-35.56 27.36.12 15.162 16.087 27.362 35.682 27.362"/>
    <path d="M29.435 52.375c0-2.414-1.957-4.372-4.372-4.372-2.414 0-4.37 1.958-4.37 4.372 0 2.414 1.956 4.372 4.37 4.372 2.415 0 4.372-1.958 4.372-4.372M44.847 52.375c0-2.414-1.957-4.372-4.372-4.372-2.414 0-4.37 1.958-4.37 4.372 0 2.414 1.956 4.372 4.37 4.372 2.415 0 4.372-1.958 4.372-4.372M60.258 52.375c0-2.414-1.957-4.372-4.372-4.372-2.414 0-4.37 1.958-4.37 4.372 0 2.414 1.956 4.372 4.37 4.372 2.415 0 4.372-1.958 4.372-4.372"/>
  </g>
</svg>
