<svg xmlns="http://www.w3.org/2000/svg" width="20px" height="20px" viewBox="0 0 21 21">
  <g clip-path="url(#a)" transform="matrix(.29557 0 0 -.29557 0 21)">
    <path d="M35.525 53.564c1.936 0 3.506-1.57 3.506-3.506 0-1.936-1.57-3.506-3.505-3.506-1.936 0-3.506 1.57-3.506 3.506 0 1.936 1.57 3.506 3.505 3.506"/>
    <path d="M35.525 71.05C15.905 71.05 0 55.145 0 35.525 0 15.905 15.905 0 35.525 0 55.145 0 71.05 15.905 71.05 35.525c0 19.62-15.906 35.525-35.525 35.525m0-3.552c17.63 0 31.972-14.343 31.972-31.972 0-17.63-14.343-31.972-31.972-31.972-17.63 0-31.973 14.342-31.973 31.972 0 17.63 14.343 31.972 31.973 31.972"/>
    <path d="M33.038 41.77h4.973V17.488H33.04V41.77z"/>
  </g>
</svg>
