<?xml version="1.0" encoding="UTF-8" standalone="no"?>
<!-- Created with Inkscape (http://www.inkscape.org/) -->

<svg
   xmlns:dc="http://purl.org/dc/elements/1.1/"
   xmlns:cc="http://creativecommons.org/ns#"
   xmlns:rdf="http://www.w3.org/1999/02/22-rdf-syntax-ns#"
   xmlns:svg="http://www.w3.org/2000/svg"
   xmlns="http://www.w3.org/2000/svg"
   xmlns:sodipodi="http://sodipodi.sourceforge.net/DTD/sodipodi-0.dtd"
   xmlns:inkscape="http://www.inkscape.org/namespaces/inkscape"
   width="5.9266667mm"
   height="6.1857896mm"
   viewBox="0 0 21 21.918152"
   id="svg2"
   version="1.1"
   inkscape:version="0.91 r13725"
   sodipodi:docname="contact-us-icon.svg">
  <defs
     id="defs4">
    <clipPath
       id="clipPath3350"
       clipPathUnits="userSpaceOnUse">
      <path
         inkscape:connector-curvature="0"
         id="path3352"
         d="m 0,84.333 80.8,0 L 80.8,0 0,0 0,84.333 Z" />
    </clipPath>
  </defs>
  <sodipodi:namedview
     id="base"
     pagecolor="#ffffff"
     bordercolor="#666666"
     borderopacity="1.0"
     inkscape:pageopacity="0.0"
     inkscape:pageshadow="2"
     inkscape:zoom="3.959798"
     inkscape:cx="106.19887"
     inkscape:cy="-3.2198875"
     inkscape:document-units="px"
     inkscape:current-layer="layer1"
     showgrid="false"
     fit-margin-top="0"
     fit-margin-left="0"
     fit-margin-right="0"
     fit-margin-bottom="0"
     inkscape:window-width="1846"
     inkscape:window-height="1053"
     inkscape:window-x="-9"
     inkscape:window-y="-9"
     inkscape:window-maximized="1" />
  <metadata
     id="metadata7">
    <rdf:RDF>
      <cc:Work
         rdf:about="">
        <dc:format>image/svg+xml</dc:format>
        <dc:type
           rdf:resource="http://purl.org/dc/dcmitype/StillImage" />
        <dc:title></dc:title>
      </cc:Work>
    </rdf:RDF>
  </metadata>
  <g
     inkscape:label="Layer 1"
     inkscape:groupmode="layer"
     id="layer1"
     transform="translate(-275.21433,-371.72341)">
    <g
       transform="matrix(0.25990099,0,0,-0.25990099,275.21433,393.64164)"
       inkscape:label="contactus-icon"
       id="g3344">
      <g
         id="g3346">
        <g
           clip-path="url(#clipPath3350)"
           id="g3348">
          <g
             transform="translate(40.4,84.3333)"
             id="g3354">
            <path
               inkscape:connector-curvature="0"
               id="path3356"
               style="fill:#000000;fill-opacity:1;fill-rule:nonzero;stroke:none"
               d="m 0,0 c -22.256,0 -40.4,-14.332 -40.4,-32.099 0,-17.767 18.144,-32.099 40.4,-32.099 3.024,0 6.048,0.237 8.951,0.83 l 0,-15.398 c 0,-3.08 2.54,-5.567 5.685,-5.567 2.177,0 4.112,1.184 5.08,3.198 l 17.176,35.889 c 1.815,3.908 3.508,8.172 3.508,13.147 0,9.121 -4.354,17.412 -12.338,23.334 C 20.684,-3.08 10.644,0 0,0 m 0,-4.738 c 19.595,0 35.562,-11.489 35.562,-27.361 0,-4.027 -1.331,-7.462 -3.145,-11.134 L 15.241,-79.122 c -0.121,-0.355 -0.484,-0.473 -0.726,-0.473 -0.363,0 -0.847,0.236 -0.847,0.829 l 0,21.438 c -4.233,-1.303 -8.83,-2.132 -13.789,-2.132 -19.595,0 -35.562,12.2 -35.562,27.361 0.121,15.161 16.088,27.361 35.683,27.361" />
          </g>
          <g
             transform="translate(29.435,52.375)"
             id="g3358">
            <path
               inkscape:connector-curvature="0"
               id="path3360"
               style="fill:#000000;fill-opacity:1;fill-rule:nonzero;stroke:none"
               d="m 0,0 c 0,-2.414 -1.957,-4.372 -4.372,-4.372 -2.414,0 -4.371,1.958 -4.371,4.372 0,2.414 1.957,4.372 4.371,4.372 C -1.957,4.372 0,2.414 0,0" />
          </g>
          <g
             transform="translate(44.8467,52.375)"
             id="g3362">
            <path
               inkscape:connector-curvature="0"
               id="path3364"
               style="fill:#000000;fill-opacity:1;fill-rule:nonzero;stroke:none"
               d="m 0,0 c 0,-2.414 -1.957,-4.372 -4.372,-4.372 -2.414,0 -4.371,1.958 -4.371,4.372 0,2.414 1.957,4.372 4.371,4.372 C -1.957,4.372 0,2.414 0,0" />
          </g>
          <g
             transform="translate(60.2583,52.375)"
             id="g3366">
            <path
               inkscape:connector-curvature="0"
               id="path3368"
               style="fill:#000000;fill-opacity:1;fill-rule:nonzero;stroke:none"
               d="m 0,0 c 0,-2.414 -1.957,-4.372 -4.372,-4.372 -2.414,0 -4.371,1.958 -4.371,4.372 0,2.414 1.957,4.372 4.371,4.372 C -1.957,4.372 0,2.414 0,0" />
          </g>
        </g>
      </g>
    </g>
  </g>
</svg>
