<?xml version="1.0" encoding="UTF-8" standalone="no"?>
<!-- Created with Inkscape (http://www.inkscape.org/) -->

<svg
   xmlns:dc="http://purl.org/dc/elements/1.1/"
   xmlns:cc="http://creativecommons.org/ns#"
   xmlns:rdf="http://www.w3.org/1999/02/22-rdf-syntax-ns#"
   xmlns:svg="http://www.w3.org/2000/svg"
   xmlns="http://www.w3.org/2000/svg"
   xmlns:sodipodi="http://sodipodi.sourceforge.net/DTD/sodipodi-0.dtd"
   xmlns:inkscape="http://www.inkscape.org/namespaces/inkscape"
   width="21"
   height="21"
   viewBox="0 0 21 21"
   id="svg2"
   version="1.1"
   inkscape:version="0.91 r13725"
   sodipodi:docname="dots-horizontal-icon.svg">
  <defs
     id="defs4">
    <clipPath
       id="clipPath3350"
       clipPathUnits="userSpaceOnUse">
      <path
         inkscape:connector-curvature="0"
         id="path3352"
         d="m 0,84.333 80.8,0 L 80.8,0 0,0 0,84.333 Z" />
    </clipPath>
  </defs>
  <sodipodi:namedview
     id="base"
     pagecolor="#ffffff"
     bordercolor="#666666"
     borderopacity="1.0"
     inkscape:pageopacity="0.0"
     inkscape:pageshadow="2"
     inkscape:zoom="22.4"
     inkscape:cx="18.243759"
     inkscape:cy="9.2498794"
     inkscape:document-units="px"
     inkscape:current-layer="layer1"
     showgrid="false"
     fit-margin-top="0"
     fit-margin-left="0"
     fit-margin-right="0"
     fit-margin-bottom="0"
     inkscape:window-width="1846"
     inkscape:window-height="1053"
     inkscape:window-x="-9"
     inkscape:window-y="-9"
     inkscape:window-maximized="1"
     units="px" />
  <metadata
     id="metadata7">
    <rdf:RDF>
      <cc:Work
         rdf:about="">
        <dc:format>image/svg+xml</dc:format>
        <dc:type
           rdf:resource="http://purl.org/dc/dcmitype/StillImage" />
        <dc:title></dc:title>
      </cc:Work>
    </rdf:RDF>
  </metadata>
  <g
     inkscape:label="Layer 1"
     inkscape:groupmode="layer"
     id="layer1"
     transform="translate(-275.21433,-372.64156)">
    <g
       id="g3346"
       transform="matrix(-0.53075471,0,0,0.52880457,307.19671,355.44542)">
      <g
         id="g3348"
         clip-path="url(#clipPath3350)">
        <g
           id="g3354"
           transform="translate(40.4,84.3333)" />
        <g
           id="g3358"
           transform="translate(29.435,52.375)">
          <path
             d="m 0,0 c 0,-2.414 -1.957,-4.372 -4.372,-4.372 -2.414,0 -4.371,1.958 -4.371,4.372 0,2.414 1.957,4.372 4.371,4.372 C -1.957,4.372 0,2.414 0,0"
             style="fill:#000000;fill-opacity:1;fill-rule:nonzero;stroke:none"
             id="path3360"
             inkscape:connector-curvature="0" />
        </g>
        <g
           id="g3362"
           transform="translate(44.8467,52.375)">
          <path
             d="m 0,0 c 0,-2.414 -1.957,-4.372 -4.372,-4.372 -2.414,0 -4.371,1.958 -4.371,4.372 0,2.414 1.957,4.372 4.371,4.372 C -1.957,4.372 0,2.414 0,0"
             style="fill:#000000;fill-opacity:1;fill-rule:nonzero;stroke:none"
             id="path3364"
             inkscape:connector-curvature="0" />
        </g>
        <g
           id="g3366"
           transform="translate(60.2583,52.375)">
          <path
             d="m 0,0 c 0,-2.414 -1.957,-4.372 -4.372,-4.372 -2.414,0 -4.371,1.958 -4.371,4.372 0,2.414 1.957,4.372 4.371,4.372 C -1.957,4.372 0,2.414 0,0"
             style="fill:#000000;fill-opacity:1;fill-rule:nonzero;stroke:none"
             id="path3368"
             inkscape:connector-curvature="0" />
        </g>
      </g>
    </g>
  </g>
</svg>
