<?xml version="1.0" encoding="UTF-8" standalone="no"?>
<!-- Created with Inkscape (http://www.inkscape.org/) -->
<svg id="svg2" xmlns:rdf="http://www.w3.org/1999/02/22-rdf-syntax-ns#" xmlns="http://www.w3.org/2000/svg" xml:space="preserve" height="8.2475" width="25" version="1.1" xmlns:cc="http://creativecommons.org/ns#" xmlns:dc="http://purl.org/dc/elements/1.1/"><metadata id="metadata8"><rdf:RDF><cc:Work rdf:about=""><dc:format>image/svg+xml</dc:format><dc:type rdf:resource="http://purl.org/dc/dcmitype/StillImage"/><dc:title/></cc:Work></rdf:RDF></metadata><defs id="defs6"><clipPath id="clipPath16" clipPathUnits="userSpaceOnUse"><path id="path18" d="m0,364.64,1105.3,0v-364.64h-1105.3v364.64z"/></clipPath></defs><g id="g10" transform="matrix(1.25,0,0,-1.25,0,8.2474899)"><g id="g12" transform="scale(0.01809479,0.01809479)"><g id="g14" clip-path="url(#clipPath16)"><g id="g20" transform="translate(655.4082,291.712)"><path id="path22" fill-rule="nonzero" fill="#FFF" d="m0,0-86.431,0,0-218.91,86.181,0c39.582,0,40.228,19.211,40.228,57.646v103.87c0,38.265-0.554,57.39-39.978,57.39m-9.032,72.817c82.488,0,123.75-40.512,123.75-121.53v-121.5c0-81.012-41.258-121.5-123.75-121.5h-151.63v364.53h151.63z"/></g><g id="g24" transform="translate(1105.2908,194.4196)"><path id="path26" fill-rule="nonzero" fill="#FFF" d="m0,0,0-194.37-151.61,0c-82.501,0-123.73,40.479-123.73,121.48v121.49c0,81.012,41.231,121.52,123.73,121.52h151.61v-72.81h-141.47c-39.768,0-59.651-19.456-59.651-58.356v-101.92c0-39.082,19.963-58.617,59.888-58.617h66.996v121.58h74.234z"/></g><g id="g28" transform="translate(413.0307,0.0192)"><path id="path30" fill-rule="nonzero" fill="#FFF" d="m0,0-70.305,0,0,79.674-103.09,141.63c-8.333,11.452-16.666,27.08-16.666,27.08s1.555-17.698,1.555-31.754v-216.63h-68.736v364.51h68.222l105.7-151.53c6.25-9.893,12.5-21.358,14.055-23.952,0,1.563-1.041,16.146-1.041,28.125v147.36l70.326-0.01v-364.51z"/></g><g id="g32" transform="translate(0,364.6349)"><path id="path34" fill-rule="nonzero" fill="#FFF" d="m0,0,0-364.56,74.235,0,0,260.58l-74.235,103.98z"/></g><g id="g36" transform="translate(0,364.6349)"><path id="path38" fill-rule="nonzero" fill="#68b7c4" d="M0,0,74.235-104.1,74.235,0,0,0z"/></g></g></g></g></svg>
