<?xml version="1.0" encoding="UTF-8" standalone="no"?>
<!-- Created with Inkscape (http://www.inkscape.org/) -->

<svg
   xmlns:dc="http://purl.org/dc/elements/1.1/"
   xmlns:cc="http://creativecommons.org/ns#"
   xmlns:rdf="http://www.w3.org/1999/02/22-rdf-syntax-ns#"
   xmlns:svg="http://www.w3.org/2000/svg"
   xmlns="http://www.w3.org/2000/svg"
   xmlns:sodipodi="http://sodipodi.sourceforge.net/DTD/sodipodi-0.dtd"
   xmlns:inkscape="http://www.inkscape.org/namespaces/inkscape"
   width="5.9266667mm"
   height="5.9266667mm"
   viewBox="0 0 21 21"
   id="svg3393"
   version="1.1"
   inkscape:version="0.91 r13725"
   sodipodi:docname="info-icon.svg">
  <defs
     id="defs3395">
    <clipPath
       id="clipPath3415"
       clipPathUnits="userSpaceOnUse">
      <path
         inkscape:connector-curvature="0"
         id="path3417"
         d="m 0,71.05 71.05,0 L 71.05,0 0,0 0,71.05 Z" />
    </clipPath>
  </defs>
  <sodipodi:namedview
     id="base"
     pagecolor="#ffffff"
     bordercolor="#666666"
     borderopacity="1.0"
     inkscape:pageopacity="0.0"
     inkscape:pageshadow="2"
     inkscape:zoom="22.4"
     inkscape:cx="19.474825"
     inkscape:cy="12.919084"
     inkscape:document-units="px"
     inkscape:current-layer="layer1"
     showgrid="false"
     fit-margin-top="0"
     fit-margin-left="0"
     fit-margin-right="0"
     fit-margin-bottom="0"
     inkscape:window-width="1846"
     inkscape:window-height="1053"
     inkscape:window-x="-9"
     inkscape:window-y="-9"
     inkscape:window-maximized="1" />
  <metadata
     id="metadata3398">
    <rdf:RDF>
      <cc:Work
         rdf:about="">
        <dc:format>image/svg+xml</dc:format>
        <dc:type
           rdf:resource="http://purl.org/dc/dcmitype/StillImage" />
        <dc:title></dc:title>
      </cc:Work>
    </rdf:RDF>
  </metadata>
  <g
     inkscape:label="Layer 1"
     inkscape:groupmode="layer"
     id="layer1"
     transform="translate(0,-1031.3622)">
    <g
       transform="matrix(0.2955665,0,0,-0.2955665,0,1052.3622)"
       inkscape:label="info-icon"
       id="g3409">
      <g
         id="g3411">
        <g
           clip-path="url(#clipPath3415)"
           id="g3413">
          <g
             transform="translate(35.525,53.564)"
             id="g3419">
            <path
               inkscape:connector-curvature="0"
               id="path3421"
               style="fill:#000000;fill-opacity:1;fill-rule:nonzero;stroke:none"
               d="m 0,0 c 1.936,0 3.506,-1.57 3.506,-3.506 0,-1.936 -1.57,-3.506 -3.506,-3.506 -1.936,0 -3.506,1.57 -3.506,3.506 C -3.506,-1.57 -1.936,0 0,0" />
          </g>
          <g
             transform="translate(35.525,71.05)"
             id="g3423">
            <path
               inkscape:connector-curvature="0"
               id="path3425"
               style="fill:#000000;fill-opacity:1;fill-rule:nonzero;stroke:none"
               d="m 0,0 c -19.62,0 -35.525,-15.905 -35.525,-35.525 0,-19.62 15.905,-35.525 35.525,-35.525 19.62,0 35.525,15.905 35.525,35.525 C 35.525,-15.905 19.619,0 0,0 m 0,-3.552 c 17.629,0 31.972,-14.343 31.972,-31.972 0,-17.629 -14.343,-31.972 -31.972,-31.972 -17.629,0 -31.973,14.342 -31.973,31.972 0,17.63 14.343,31.972 31.973,31.972" />
          </g>
          <path
             inkscape:connector-curvature="0"
             id="path3427"
             style="fill:#000000;fill-opacity:1;fill-rule:nonzero;stroke:none"
             d="m 33.038,41.771 4.973,0 0,-24.284 -4.973,0 0,24.284 z" />
        </g>
      </g>
    </g>
  </g>
</svg>
